<svg xmlns="http://www.w3.org/2000/svg" width="500" height="500" viewBox="0 0 500 500">
  <path fill="#FFFFFF" fill-rule="evenodd" d="M351.658773,194.952184 L404.093663,219.097096 C411.163598,222.352619 411.386788,229.291115 404.592172,234.594662 L222.511613,376.717902 C215.716997,382.021449 204.477558,383.681701 197.407623,380.426179 L94.9976281,333.269022 C87.9276933,330.013499 87.7045033,323.075003 94.4991192,317.771456 L174.575746,255.26753 L183.536621,259.393782 L125.604927,304.612448 L236.335734,355.601124 L373.51129,248.528548 L316.595962,222.32051 L329.51384,212.237443 L343.544982,218.698421 C345.665963,219.675078 349.037794,219.177002 351.076179,217.585938 C353.114564,215.994874 353.047607,213.913325 350.926626,212.936668 L336.895484,206.47569 L351.658773,194.952184 Z M153.58427,351.085847 C158.886721,353.527489 167.3163,352.2823 172.412262,348.30464 C177.508224,344.326979 177.340832,339.123107 172.038381,336.681465 C166.735929,334.239823 158.30635,335.485012 153.210388,339.462673 C148.114426,343.440333 148.281819,348.644206 153.58427,351.085847 Z M262.908082,118.46045 L373.638889,169.449126 L236.463333,276.521701 L125.732526,225.533026 L262.908082,118.46045 Z"/>
</svg>
