<svg xmlns="http://www.w3.org/2000/svg" width="64" height="32" viewBox="0 0 64 32">
  <g fill="#FFFFFF" fill-rule="evenodd">
    <path d="M11,6 L20.9047619,6 C21.4570467,6 21.9047619,6.44771525 21.9047619,7 L21.9047619,25 C21.9047619,25.5522847 21.4570467,26 20.9047619,26 L11,26 C10.4477153,26 10,25.5522847 10,25 L10,7 C10,6.44771525 10.4477153,6 11,6 Z M10.8333333,9.39285714 L10.8333333,22.6666667 L21.1309524,22.6666667 L21.1309524,9.39285714 L10.8333333,9.39285714 Z M15.952381,25.2857143 C16.4454923,25.2857143 16.8452381,24.8859685 16.8452381,24.3928571 C16.8452381,23.8997458 16.4454923,23.5 15.952381,23.5 C15.4592696,23.5 15.0595238,23.8997458 15.0595238,24.3928571 C15.0595238,24.8859685 15.4592696,25.2857143 15.952381,25.2857143 Z M14.7619048,7.42857143 C14.5646602,7.42857143 14.4047619,7.58846973 14.4047619,7.78571429 C14.4047619,7.98295884 14.5646602,8.14285714 14.7619048,8.14285714 L17.1428571,8.14285714 C17.3401017,8.14285714 17.5,7.98295884 17.5,7.78571429 C17.5,7.58846973 17.3401017,7.42857143 17.1428571,7.42857143 L14.7619048,7.42857143 Z"/>
    <path d="M44,6 L53.9047619,6 C54.4570467,6 54.9047619,6.44771525 54.9047619,7 L54.9047619,25 C54.9047619,25.5522847 54.4570467,26 53.9047619,26 L44,26 C43.4477153,26 43,25.5522847 43,25 L43,7 C43,6.44771525 43.4477153,6 44,6 Z M43.8333333,9.39285714 L43.8333333,22.6666667 L54.1309524,22.6666667 L54.1309524,9.39285714 L43.8333333,9.39285714 Z M48.952381,25.2857143 C49.4454923,25.2857143 49.8452381,24.8859685 49.8452381,24.3928571 C49.8452381,23.8997458 49.4454923,23.5 48.952381,23.5 C48.4592696,23.5 48.0595238,23.8997458 48.0595238,24.3928571 C48.0595238,24.8859685 48.4592696,25.2857143 48.952381,25.2857143 Z M47.7619048,7.42857143 C47.5646602,7.42857143 47.4047619,7.58846973 47.4047619,7.78571429 C47.4047619,7.98295884 47.5646602,8.14285714 47.7619048,8.14285714 L50.1428571,8.14285714 C50.3401017,8.14285714 50.5,7.98295884 50.5,7.78571429 C50.5,7.58846973 50.3401017,7.42857143 50.1428571,7.42857143 L47.7619048,7.42857143 Z" transform="rotate(-90 48.952 16)"/>
  </g>
</svg>
