<?xml version="1.0" encoding="utf-8"?>
<!-- Generator: Adobe Illustrator 16.0.0, SVG Export Plug-In . SVG Version: 6.00 Build 0)  -->
<!DOCTYPE svg PUBLIC "-//W3C//DTD SVG 1.1//EN" "http://www.w3.org/Graphics/SVG/1.1/DTD/svg11.dtd">
<svg version="1.1" id="Layer_1" xmlns="http://www.w3.org/2000/svg" xmlns:xlink="http://www.w3.org/1999/xlink" x="0px" y="0px"
	 width="293.625px" height="293.625px" viewBox="0 0 293.625 293.625" enable-background="new 0 0 293.625 293.625"
	 xml:space="preserve">
<path fill="#EAC197" d="M208.667,150.834c0,51.453-34.344,93.166-60.172,93.166c-25.829,0-60.173-41.713-60.173-93.166
	c0-51.455,9.649-93.167,60.173-93.167C199.018,57.668,208.667,99.38,208.667,150.834z"/>
<path fill="#E2A270" d="M195.125,79.485c-0.518-0.99-1.004-1.902-1.461-2.745c-1.135-2.545-2.469-4.865-4.035-6.794
	c-0.695-0.982-1.203-1.522-1.549-1.692c-3.936-3.811-9.156-5.259-16.086-2.217c0,0-2.703-7-13.494-5.727
	s-21.165-15.592-18.634-28.637c0,0-11.383,0.636-13.154,26.728c0,0-4.301-1.273-6.324-9.546c0,0,4.977,29.186,7.083,31.5
	s15.938,22.272,47.559-0.954c0,0,9.916,15.016,18.012,12.151l1.936,4.975c-0.621,3.287-1.029,16.239,2.365,22.473
	c3.811,6.999,8.338,20.204,8.338,20.204S212.338,112.342,195.125,79.485z"/>
<path fill="#443440" d="M173.135,61c0,0-2.832-7.334-14.137-6c-11.307,1.334-22.172-16.334-19.522-30c0,0-11.925,0.666-13.78,28
	c0,0-4.506-1.334-6.626-10c0,0-5.035,5.667-5.035,20.667c0,0-17.227-3.334-23.587,22.333c0,0,4.771-4,10.602-2.666
	c5.829,1.333,23.321-1.668,25.441-7.334c0,0,16.696,23.333,49.824-1c0,0,10.389,15.73,18.869,12.73l7.369,18.937
	C202.553,106.667,201.227,48.667,173.135,61z"/>
<path fill="#E2A270" d="M148.823,184.25c0,0-1.037,0.463-1.174,1.334c-0.139-0.871-1.174-1.271-1.174-1.271S114.728,175,108.5,211
	c0,0,1.246,9.666,6.229,10.5c4.981,0.832,9.133-10.5,9.133-10.5s3.321-9.75,9.549-11.25c6.227-1.5,12.845-7.625,13.895-10.125
	c0.163-0.387,0.27-0.848,0.344-1.244c0.074,0.396,0.182,0.764,0.344,1.15c1.049,2.5,7.668,8.734,13.895,10.234
	S171.436,211,171.436,211s5.844,10.588,9.719,10.543c3.873-0.043,5.643-10.543,5.643-10.543
	C180.569,175,148.823,184.25,148.823,184.25z"/>
<path fill="#443440" d="M99.5,78.75c0,0-8.551,16.57-7.75,18.75s17.75-17.75,17.75-17.75L99.5,78.75z"/>
<path fill="#443440" d="M197.342,92.274c0,0-3.992,19.393,0,26.726s11.082,18.65,11.082,18.65s6.977-28.142-11.057-62.562
	S197.342,92.274,197.342,92.274z"/>
<path fill="#443440" d="M98.756,97.274c0,0,3.992,19.393,0,26.726s-11.082,18.65-11.082,18.65s-6.977-28.142,11.057-62.562
	S98.756,97.274,98.756,97.274z"/>
<path fill="#E2A270" d="M207.385,130.269c0,0-31.049-11.647-55.283-1.387c-2.354,0.995-4.514,1.329-4.868,1.38
	c-0.354-0.051-2.514-0.385-4.865-1.38c-24.236-10.261-55.285,1.387-55.285,1.387c-1.325,6.102,1.892,7.766,2.839,8.042
	c0.947,0.278,2.655-4.604,3.787,6.491c0.568,20.912,10.98,19.576,28.399,20.13c17.418,0.555,19.689-15.527,21.016-22.738
	c0.736-4.003,2.172-5.27,3.304-5.606l-0.008,0.059c0,0,0.325-0.148,0.813-0.163c0.489,0.015,0.813,0.163,0.813,0.163l-0.006-0.059
	c1.131,0.337,2.566,1.604,3.303,5.606c1.326,7.21,3.598,23.292,21.016,22.738s27.832,0.781,28.398-20.13
	c1.133-11.095,2.842-6.213,3.787-6.491C205.493,138.034,208.711,136.37,207.385,130.269z"/>
<g>
	<polygon fill="#DDDDDD" points="82.537,123.912 87.944,153.301 99.88,160.313 126.547,160.313 136.989,149.944 141.465,128.07 
		135.498,120.956 112.001,117.958 	"/>
	<polygon fill="#DDDDDD" points="211.583,123.912 206.174,153.301 194.239,160.313 167.573,160.313 157.129,149.944 152.655,128.07 
		158.622,120.956 182.118,117.958 	"/>
	<path fill="#EEEEEE" d="M86.313,131.667v19.167l7.845,7.666l34.921,1.361l9.128-10.893l2.147-11.319l-1.873-6.142
		c0,0,1.835-6.854-26.498-6.854C83.774,124.655,86.313,131.667,86.313,131.667z"/>
	<path fill="#EEEEEE" d="M208.313,131.667v19.167l-8.016,7.666l-35.006,1.361l-9.17-10.893l-2.17-11.319l1.863-6.142
		c0,0-1.671-6.854,26.661-6.854C210.687,124.655,208.313,131.667,208.313,131.667z"/>
	<path fill="#444444" d="M218.807,122.51c0,0-36.945-13.858-65.781-1.65c-2.801,1.184-5.371,1.581-5.792,1.641
		c-0.42-0.06-2.99-0.457-5.79-1.641c-28.836-12.208-65.781,1.65-65.781,1.65c-1.576,7.259,2.252,9.239,3.379,9.568
		c1.127,0.33,3.159-5.478,4.506,7.724c0.676,24.88,13.065,23.294,33.791,23.953c20.726,0.66,23.429-18.476,25.006-27.055
		c0.876-4.763,2.584-6.27,3.931-6.67l-0.009,0.069c0,0,0.387-0.177,0.968-0.194c0.583,0.018,0.967,0.194,0.967,0.194l-0.008-0.069
		c1.346,0.4,3.055,1.907,3.93,6.67c1.578,8.579,4.281,27.715,25.006,27.055c20.727-0.658,33.117,0.928,33.791-23.953
		c1.348-13.201,3.381-7.394,4.506-7.724C216.553,131.749,220.383,129.769,218.807,122.51z M138.064,137.688
		c-0.9,7.92-1.126,17.818-15.543,18.808c-14.419,0.99-24.78,0.33-27.936-1.32c-3.153-1.65-6.082-1.65-7.884-20.127
		c0,0-1.803-10.89,8.335-13.199c10.137-2.311,35.144-2.311,39.424,1.65C138.74,127.459,138.966,129.769,138.064,137.688z
		 M207.768,135.049c-1.801,18.477-4.73,18.477-7.885,20.127s-13.516,2.311-27.936,1.32c-14.416-0.99-14.643-10.888-15.543-18.808
		s-0.676-10.229,3.604-14.188c4.281-3.961,29.287-3.961,39.424-1.65C209.569,124.159,207.768,135.049,207.768,135.049z"/>
</g>
<path fill="#443440" d="M209.315,159.862l-5.199,4.512c-0.023,8.424-11.896,19.27-12.213,31.127
	c-0.289,10.949-4.881,11.953-4.881,11.953L171.436,207c0,0-7.607,6-24.936,6c-17.329,0-22.639-6-22.639-6l-11.804,0.453
	c0,0-9.89-0.213-10.774-14.713c-1.445-15.52-6.823-10.812-7.416-27.795L87.877,162c0,0-0.007,52.246,11.226,58.898
	c3.651,2.16,5.206,8.461,5.978,12.484s4.479,8.051,6.331,8.453s4.788-0.805,5.56,2.014c0.772,2.816,6.022,20.523,12.505,14.488
	c6.485-6.037,5.868-6.439,7.259-2.816c1.366,3.566,8.123,14.535,12.971,12.951c5.066,1.584,11.646-9.385,13.014-12.951
	c1.389-3.623,0.82-3.221,7.305,2.816c6.484,6.035,11.734-11.672,12.504-14.488c0.771-2.818,3.705-1.611,5.559-2.014
	c1.852-0.402,5.557-4.43,6.33-8.453c0.771-4.023,2.057-11.094,5.969-12.484C211.336,217,209.315,159.862,209.315,159.862z"/>
<path opacity="0.1" d="M200.385,210.899c-3.912,1.391-5.197,8.461-5.969,12.484c-0.773,4.023-4.479,8.051-6.33,8.453
	c-1.854,0.402-4.787-0.805-5.559,2.014c-0.77,2.816-6.02,20.523-12.504,14.488c-6.484-6.037-5.916-6.439-7.305-2.816
	c-1.367,3.566-7.947,14.535-13.014,12.951c-4.848,1.584-11.605-9.385-12.971-12.951c-1.391-3.623-0.773-3.221-7.259,2.816
	c-6.482,6.035-11.732-11.672-12.505-14.488c-0.771-2.818-3.707-1.611-5.56-2.014s-5.56-4.43-6.331-8.453s-2.326-10.324-5.978-12.484
	c-8.091-4.793-10.351-33.24-10.981-48.779L87.877,162c0,0-0.007,52.246,11.226,58.898c3.651,2.16,5.206,8.461,5.978,12.484
	s4.479,8.051,6.331,8.453s4.788-0.805,5.56,2.014c0.772,2.816,6.022,20.523,12.505,14.488c6.485-6.037,5.868-6.439,7.259-2.816
	c1.366,3.566,8.123,14.535,12.971,12.951c5.066,1.584,11.646-9.385,13.014-12.951c1.389-3.623,0.82-3.221,7.305,2.816
	c6.484,6.035,11.734-11.672,12.504-14.488c0.771-2.818,3.705-1.611,5.559-2.014c1.852-0.402,5.557-4.43,6.33-8.453
	c0.771-4.023,2.057-11.094,5.969-12.484c8.902-3.17,9.232-41.531,9.043-55.766C209.202,182.356,207.641,208.315,200.385,210.899z"/>
<path fill="#443440" d="M148.823,180.25c0,0-1.037,0.463-1.174,1.334c-0.139-0.871-1.174-1.271-1.174-1.271S114.728,171,108.5,207
	c0,0,1.246,9.666,6.229,10.5c4.981,0.832,9.133-10.5,9.133-10.5s3.321-9.75,9.549-11.25c6.227-1.5,12.845-7.625,13.895-10.125
	c0.163-0.387,0.27-0.848,0.344-1.244c0.074,0.396,0.182,0.764,0.344,1.15c1.049,2.5,7.668,8.734,13.895,10.234
	S171.436,207,171.436,207s5.844,10.588,9.719,10.543c3.873-0.043,5.643-10.543,5.643-10.543
	C180.569,171,148.823,180.25,148.823,180.25z"/>
</svg>
